<?xml version="1.0" encoding="UTF-8" standalone="no"?><!DOCTYPE svg PUBLIC "-//W3C//DTD SVG 1.1//EN" "http://www.w3.org/Graphics/SVG/1.1/DTD/svg11.dtd"><!-- Generated by graphviz version 2.40.1 (20161225.0304)
 --><!-- Title: G Pages: 1 --><svg xmlns="http://www.w3.org/2000/svg" xmlns:xlink="http://www.w3.org/1999/xlink" width="244pt" height="404pt" viewBox="0.00 0.00 244.42 404.00">
<g id="graph0" class="graph" transform="scale(1 1) rotate(0) translate(4 400)">
<title>G</title>
<polygon fill="#ffffff" stroke="transparent" points="-4,4 -4,-400 240.4153,-400 240.4153,4 -4,4"/>
<!-- Computability -->
<g id="node1" class="node">
<title>Computability</title>
<ellipse fill="#b4eeb4" stroke="#000000" cx="169.579" cy="-378" rx="66.6729" ry="18"/>
<text text-anchor="middle" x="169.579" y="-373.8" font-family="Times,serif" font-size="14.00" fill="#000000">Computability</text>
</g>
<!-- Definability -->
<g id="node3" class="node">
<title>Definability</title>
<ellipse fill="#f08080" stroke="#000000" cx="126.579" cy="-306" rx="57.9004" ry="18"/>
<text text-anchor="middle" x="126.579" y="-301.8" font-family="Times,serif" font-size="14.00" fill="#000000">Definability</text>
</g>
<!-- Computability&#45;&gt;Definability -->
<g id="edge1" class="edge">
<title>Computability-&gt;Definability</title>
<path fill="none" stroke="#000000" d="M153.697,-351.4068C150.0111,-345.2351 146.0884,-338.6668 142.4049,-332.4992"/>
<polygon fill="#000000" stroke="#000000" points="150.8174,-353.4114 158.9498,-360.2022 156.8272,-349.8222 150.8174,-353.4114"/>
<polygon fill="#000000" stroke="#000000" points="145.3673,-330.6334 137.235,-323.8425 139.3575,-334.2226 145.3673,-330.6334"/>
</g>
<!-- Kolmgorov Complexity -->
<g id="node2" class="node">
<title>Kolmgorov Complexity</title>
<ellipse fill="#faebd7" stroke="#000000" cx="103.579" cy="-234" rx="103.6581" ry="18"/>
<text text-anchor="middle" x="103.579" y="-229.8" font-family="Times,serif" font-size="14.00" fill="#000000">Kolmgorov Complexity</text>
</g>
<!-- Information theory -->
<g id="node6" class="node">
<title>Information theory</title>
<ellipse fill="#ffb6c1" stroke="#000000" cx="113.579" cy="-162" rx="84.4923" ry="18"/>
<text text-anchor="middle" x="113.579" y="-157.8" font-family="Times,serif" font-size="14.00" fill="#000000">Information theory</text>
</g>
<!-- Kolmgorov Complexity&#45;&gt;Information theory -->
<g id="edge3" class="edge">
<title>Kolmgorov Complexity-&gt;Information theory</title>
<path fill="none" stroke="#000000" d="M107.4881,-205.8545C108.1928,-200.781 108.9278,-195.4887 109.6335,-190.4078"/>
<polygon fill="#000000" stroke="#000000" points="104.0115,-205.4449 106.1024,-215.8314 110.9449,-206.408 104.0115,-205.4449"/>
<polygon fill="#000000" stroke="#000000" points="113.1126,-190.7997 111.0216,-180.4133 106.1791,-189.8367 113.1126,-190.7997"/>
</g>
<!-- Definability&#45;&gt;Kolmgorov Complexity -->
<g id="edge2" class="edge">
<title>Definability-&gt;Kolmgorov Complexity</title>
<path fill="none" stroke="#000000" d="M117.678,-278.136C115.9991,-272.8803 114.2422,-267.3805 112.5609,-262.1171"/>
<polygon fill="#000000" stroke="#000000" points="114.3981,-279.3706 120.7751,-287.8314 121.0661,-277.2405 114.3981,-279.3706"/>
<polygon fill="#000000" stroke="#000000" points="115.8381,-260.874 109.461,-252.4133 109.17,-263.0041 115.8381,-260.874"/>
</g>
<!-- Probability -->
<g id="node4" class="node">
<title>Probability</title>
<ellipse fill="#ffffe0" stroke="#000000" cx="133.579" cy="-90" rx="53.9098" ry="18"/>
<text text-anchor="middle" x="133.579" y="-85.8" font-family="Times,serif" font-size="14.00" fill="#000000">Probability</text>
</g>
<!-- Counting -->
<g id="node5" class="node">
<title>Counting</title>
<ellipse fill="#f0f8ff" stroke="#000000" cx="174.579" cy="-18" rx="46.9728" ry="18"/>
<text text-anchor="middle" x="174.579" y="-13.8" font-family="Times,serif" font-size="14.00" fill="#000000">Counting</text>
</g>
<!-- Probability&#45;&gt;Counting -->
<g id="edge5" class="edge">
<title>Probability-&gt;Counting</title>
<path fill="none" stroke="#000000" d="M148.7617,-63.3377C152.3042,-57.1167 156.0743,-50.496 159.6076,-44.2912"/>
<polygon fill="#000000" stroke="#000000" points="145.6208,-61.7804 143.7138,-72.2022 151.7037,-65.2443 145.6208,-61.7804"/>
<polygon fill="#000000" stroke="#000000" points="162.6538,-46.0148 164.5608,-35.593 156.5709,-42.5509 162.6538,-46.0148"/>
</g>
<!-- Counting&#45;&gt;Computability -->
<g id="edge6" class="edge">
<title>Counting-&gt;Computability</title>
<path fill="none" stroke="#000000" d="M193.0725,-43.9795C211.0241,-71.7948 235.579,-117.9015 235.579,-162 235.579,-234 235.579,-234 235.579,-234 235.579,-278.4191 209.3057,-324.1105 189.9127,-351.7864"/>
<polygon fill="#000000" stroke="#000000" points="195.9652,-42.0087 187.5155,-35.617 190.135,-45.8829 195.9652,-42.0087"/>
<polygon fill="#000000" stroke="#000000" points="186.9159,-349.958 183.9,-360.1146 192.5913,-354.0555 186.9159,-349.958"/>
</g>
<!-- Information theory&#45;&gt;Probability -->
<g id="edge4" class="edge">
<title>Information theory-&gt;Probability</title>
<path fill="none" stroke="#000000" d="M121.319,-134.136C122.7789,-128.8803 124.3066,-123.3805 125.7687,-118.1171"/>
<polygon fill="#000000" stroke="#000000" points="117.9301,-133.2594 118.6259,-143.8314 124.6747,-135.133 117.9301,-133.2594"/>
<polygon fill="#000000" stroke="#000000" points="129.16,-118.9852 128.4642,-108.4133 122.4154,-117.1117 129.16,-118.9852"/>
</g>
</g>
</svg>