<?xml version="1.0" encoding="UTF-8" standalone="no"?><!DOCTYPE svg PUBLIC "-//W3C//DTD SVG 1.1//EN" "http://www.w3.org/Graphics/SVG/1.1/DTD/svg11.dtd"><!-- Generated by graphviz version 2.40.1 (20161225.0304)
 --><!-- Title: G Pages: 1 --><svg xmlns="http://www.w3.org/2000/svg" xmlns:xlink="http://www.w3.org/1999/xlink" width="1015pt" height="72pt" viewBox="0.00 0.00 1014.60 72.00">
<g id="graph0" class="graph" transform="scale(1 1) rotate(0) translate(4 68)">
<title>G</title>
<polygon fill="#ffffff" stroke="transparent" points="-4,4 -4,-68 1010.6044,-68 1010.6044,4 -4,4"/>
<!-- Computability -->
<g id="node1" class="node">
<title>Computability</title>
<ellipse fill="#b4eeb4" stroke="#000000" cx="66.8363" cy="-23" rx="66.6729" ry="18"/>
<text text-anchor="middle" x="66.8363" y="-18.8" font-family="Times,serif" font-size="14.00" fill="#000000">Computability</text>
</g>
<!-- Definability -->
<g id="node3" class="node">
<title>Definability</title>
<ellipse fill="#f08080" stroke="#000000" cx="227.3724" cy="-46" rx="57.9004" ry="18"/>
<text text-anchor="middle" x="227.3724" y="-41.8" font-family="Times,serif" font-size="14.00" fill="#000000">Definability</text>
</g>
<!-- Computability&#45;&gt;Definability -->
<g id="edge1" class="edge">
<title>Computability-&gt;Definability</title>
<path fill="none" stroke="#000000" d="M136.4082,-32.9676C145.8922,-34.3263 155.579,-35.7142 164.9263,-37.0534"/>
<polygon fill="#000000" stroke="#000000" points="136.5532,-29.4527 126.1579,-31.499 135.5604,-36.3819 136.5532,-29.4527"/>
<polygon fill="#000000" stroke="#000000" points="164.5148,-40.5301 174.9101,-38.4837 165.5076,-33.6008 164.5148,-40.5301"/>
</g>
<!-- Kolmgorov Complexity -->
<g id="node2" class="node">
<title>Kolmgorov Complexity</title>
<ellipse fill="#faebd7" stroke="#000000" cx="424.6512" cy="-46" rx="103.6581" ry="18"/>
<text text-anchor="middle" x="424.6512" y="-41.8" font-family="Times,serif" font-size="14.00" fill="#000000">Kolmgorov Complexity</text>
</g>
<!-- Information theory -->
<g id="node6" class="node">
<title>Information theory</title>
<ellipse fill="#ffb6c1" stroke="#000000" cx="648.476" cy="-46" rx="84.4923" ry="18"/>
<text text-anchor="middle" x="648.476" y="-41.8" font-family="Times,serif" font-size="14.00" fill="#000000">Information theory</text>
</g>
<!-- Kolmgorov Complexity&#45;&gt;Information theory -->
<g id="edge3" class="edge">
<title>Kolmgorov Complexity-&gt;Information theory</title>
<path fill="none" stroke="#000000" d="M538.5219,-46C543.6576,-46 548.7877,-46 553.8691,-46"/>
<polygon fill="#000000" stroke="#000000" points="538.3734,-42.5001 528.3734,-46 538.3734,-49.5001 538.3734,-42.5001"/>
<polygon fill="#000000" stroke="#000000" points="554.2169,-49.5001 564.2169,-46 554.2168,-42.5001 554.2169,-49.5001"/>
</g>
<!-- Definability&#45;&gt;Kolmgorov Complexity -->
<g id="edge2" class="edge">
<title>Definability-&gt;Kolmgorov Complexity</title>
<path fill="none" stroke="#000000" d="M295.4618,-46C300.4748,-46 305.6046,-46 310.792,-46"/>
<polygon fill="#000000" stroke="#000000" points="295.2296,-42.5001 285.2295,-46 295.2295,-49.5001 295.2296,-42.5001"/>
<polygon fill="#000000" stroke="#000000" points="310.823,-49.5001 320.8229,-46 310.8229,-42.5001 310.823,-49.5001"/>
</g>
<!-- Probability -->
<g id="node4" class="node">
<title>Probability</title>
<ellipse fill="#ffffe0" stroke="#000000" cx="822.6767" cy="-46" rx="53.9098" ry="18"/>
<text text-anchor="middle" x="822.6767" y="-41.8" font-family="Times,serif" font-size="14.00" fill="#000000">Probability</text>
</g>
<!-- Counting -->
<g id="node5" class="node">
<title>Counting</title>
<ellipse fill="#f0f8ff" stroke="#000000" cx="959.618" cy="-23" rx="46.9728" ry="18"/>
<text text-anchor="middle" x="959.618" y="-18.8" font-family="Times,serif" font-size="14.00" fill="#000000">Counting</text>
</g>
<!-- Probability&#45;&gt;Counting -->
<g id="edge5" class="edge">
<title>Probability-&gt;Counting</title>
<path fill="none" stroke="#000000" d="M880.825,-36.2337C889.2892,-34.8121 897.9688,-33.3543 906.3303,-31.9499"/>
<polygon fill="#000000" stroke="#000000" points="880.2392,-32.783 870.9571,-37.8911 881.3987,-39.6863 880.2392,-32.783"/>
<polygon fill="#000000" stroke="#000000" points="907.0538,-35.3775 916.3359,-30.2694 905.8943,-28.4742 907.0538,-35.3775"/>
</g>
<!-- Counting&#45;&gt;Computability -->
<g id="edge6" class="edge">
<title>Counting-&gt;Computability</title>
<path fill="none" stroke="#000000" d="M904.6378,-16.4717C842.5335,-9.6718 738.3946,0 648.476,0 424.6512,0 424.6512,0 424.6512,0 325.8652,0 212.0535,-8.8384 139.8066,-15.5574"/>
<polygon fill="#000000" stroke="#000000" points="904.2843,-19.9538 914.6094,-17.5784 905.0566,-12.9966 904.2843,-19.9538"/>
<polygon fill="#000000" stroke="#000000" points="139.0834,-12.1099 129.4556,-16.532 139.7397,-19.0791 139.0834,-12.1099"/>
</g>
<!-- Information theory&#45;&gt;Probability -->
<g id="edge4" class="edge">
<title>Information theory-&gt;Probability</title>
<path fill="none" stroke="#000000" d="M743.0248,-46C748.199,-46 753.3379,-46 758.3677,-46"/>
<polygon fill="#000000" stroke="#000000" points="742.7699,-42.5001 732.7698,-46 742.7698,-49.5001 742.7699,-42.5001"/>
<polygon fill="#000000" stroke="#000000" points="758.5153,-49.5001 768.5153,-46 758.5152,-42.5001 758.5153,-49.5001"/>
</g>
</g>
</svg>